<?xml version="1.0" standalone="no"?>
<!DOCTYPE svg PUBLIC "-//W3C//DTD SVG 20010904//EN"
 "http://www.w3.org/TR/2001/REC-SVG-20010904/DTD/svg10.dtd">
<svg version="1.0" xmlns="http://www.w3.org/2000/svg"
 width="262.000000pt" height="262.000000pt" viewBox="0 0 262.000000 262.000000"
 preserveAspectRatio="xMidYMid meet">
<metadata>
Created by potrace 1.14, written by Peter Selinger 2001-2017
</metadata>
<g transform="translate(0.000000,262.000000) scale(0.100000,-0.100000)"
fill="#000000" stroke="none">
<path d="M880 2055 c-222 -128 -410 -242 -417 -251 -11 -15 -13 -118 -13 -496
1 -551 -15 -482 127 -564 48 -28 231 -133 406 -233 215 -124 324 -181 338
-178 10 3 201 110 424 239 274 158 407 240 414 256 7 15 11 184 11 491 0 432
-1 470 -17 489 -28 32 -817 482 -844 482 -13 0 -206 -106 -429 -235z m365
-162 c-1 -120 3 -230 8 -246 15 -46 94 -50 113 -5 6 13 10 121 9 246 0 122 2
222 5 222 3 0 32 -16 64 -35 32 -19 59 -35 61 -35 1 0 106 -60 234 -134 l233
-134 -38 -25 c-22 -13 -64 -37 -94 -54 -30 -17 -152 -87 -270 -155 -118 -69
-225 -130 -238 -137 -21 -11 -51 4 -340 170 -174 100 -323 186 -330 192 -9 7
37 38 165 112 98 56 230 132 293 168 63 37 117 67 120 67 3 0 5 -98 5 -217z
m-110 -555 l110 -63 0 -383 c0 -210 -1 -382 -3 -382 -1 0 -19 11 -40 23 -20
13 -57 35 -82 49 -25 14 -141 80 -258 148 -184 106 -210 124 -195 135 10 6 98
58 195 114 97 56 182 109 189 117 33 40 -9 112 -58 99 -20 -5 -132 -66 -349
-192 -31 -18 -58 -33 -60 -33 -2 0 -4 155 -4 345 l0 344 223 -128 c122 -71
271 -157 332 -193z m904 -29 c1 -187 -2 -339 -7 -337 -4 1 -96 54 -204 116
-203 116 -227 124 -259 86 -15 -18 -15 -60 1 -79 7 -8 96 -63 199 -121 102
-59 190 -110 194 -114 6 -6 -455 -280 -568 -338 -20 -10 -20 -8 -20 371 l0
382 325 187 c179 103 328 188 332 188 4 0 7 -153 7 -341z"/>
</g>
</svg>
